# xmcd
#
# Track frame offsets: 
#        150
#        19881
#        40434
#        59790
#        80405
#        100196
#        116744
#        134929
#        155050
#        173854
#        189759
#        191107
#
# Disc length: 2758 seconds
#
# Revision: 0
# Processed by: cddbd v1.5.2PL0 Copyright (c) Steve Scherf et al.
# Submitted via: ExactAudioCopy v0.95b3
#
DISCID=b20ac40c
DTITLE=The Pasta Cowboys - Al Dente
DYEAR=2008
DGENRE=Country
TTITLE0=Standing Outside The Fire
TTITLE1=Drift Away
TTITLE2=Wrapped Up In You
TTITLE3=Tougher Than The Rest
TTITLE4=Put Some Drive In Your Country
TTITLE5=Shameless
TTITLE6=Kiss
TTITLE7=Hey Batter Batter
TTITLE8=925
TTITLE9=The River
TTITLE10=Announcement
TTITLE11=Se Domani Non Viene Mai
EXTD=
EXTT0=
EXTT1=
EXTT2=
EXTT3=
EXTT4=
EXTT5=
EXTT6=
EXTT7=
EXTT8=
EXTT9=
EXTT10=
EXTT11=
PLAYORDER=
